<?xml version="1.0" encoding="utf-8"?>
<!-- Generator: Adobe Illustrator 16.0.0, SVG Export Plug-In . SVG Version: 6.00 Build 0)  -->
<!DOCTYPE svg PUBLIC "-//W3C//DTD SVG 1.1//EN" "http://www.w3.org/Graphics/SVG/1.1/DTD/svg11.dtd">
<svg version="1.1" id="Layer_1" xmlns="http://www.w3.org/2000/svg" xmlns:xlink="http://www.w3.org/1999/xlink" x="0px" y="0px"
	 width="25px" height="25px" viewBox="285.14 408.445 25 25" enable-background="new 285.14 408.445 25 25" xml:space="preserve">
<g>
	<path d="M305.127,420.94c0,0.541-0.411,0.98-0.938,1.039h-7.074c-0.289-0.023-0.518-0.261-0.536-0.551c0-0.005,0-0.01,0-0.015
		v-0.046v-5.396v-0.071c0.02-0.569,0.482-1.023,1.056-1.023c0.584,0,1.056,0.475,1.056,1.059v0.597v2.742v0.005
		c0,0.01-0.002,0.021-0.002,0.031s0.002,0.02,0.002,0.028v0.008c0.016,0.288,0.24,0.51,0.521,0.538l4.932,0.005
		C304.694,419.925,305.127,420.381,305.127,420.94z"/>
	<path d="M297.637,408.422c6.906,0,12.502,5.607,12.502,12.523s-5.597,12.522-12.502,12.522c-6.9,0-12.498-5.606-12.498-12.522
		S290.737,408.422,297.637,408.422z M306.9,420.945c0-5.123-4.145-9.273-9.26-9.273c-5.112,0-9.258,4.151-9.258,9.273
		c0,5.122,4.146,9.275,9.258,9.275S306.9,426.067,306.9,420.945z"/>
</g>
</svg>
