<?xml version="1.0" encoding="utf-8"?>
<!-- Generator: Adobe Illustrator 16.0.0, SVG Export Plug-In . SVG Version: 6.00 Build 0)  -->
<!DOCTYPE svg PUBLIC "-//W3C//DTD SVG 1.1//EN" "http://www.w3.org/Graphics/SVG/1.1/DTD/svg11.dtd">
<svg version="1.1" id="Layer_1" xmlns="http://www.w3.org/2000/svg" xmlns:xlink="http://www.w3.org/1999/xlink" x="0px" y="0px"
	 width="30px" height="30px" viewBox="282.64 405.945 30 30" enable-background="new 282.64 405.945 30 30" xml:space="preserve">
<path d="M282.64,428.934v1.941c0,0.207,0.167,0.375,0.375,0.375h29.25c0.207,0,0.375-0.168,0.375-0.375v-1.941c0-0.207,0.207,0,0,0
	l-0.935-0.004v-0.221c0-7.5-5.901-13.647-13.304-14.044c0.691-0.296,1.177-0.983,1.177-1.781c0-1.069-0.869-1.938-1.938-1.938
	c-1.069,0-1.938,0.869-1.938,1.938c0,0.798,0.485,1.485,1.177,1.781c-7.403,0.397-13.303,6.544-13.303,14.044v0.221 M312.64,429.842
	h-30v-0.896h30V429.842z"/>
<path fill="#FFFFFF" stroke="#FFFFFF" stroke-width="0.315" stroke-miterlimit="10" d="M299.848,417.423
	c4.279,0.779,7.783,3.996,8.928,8.194c0.057,0.206,0.243,0.342,0.446,0.342c0.041,0,0.081-0.006,0.122-0.017
	c0.246-0.068,0.392-0.322,0.324-0.568c-1.237-4.541-5.027-8.019-9.655-8.86c-0.249-0.049-0.491,0.12-0.537,0.372
	C299.43,417.137,299.596,417.378,299.848,417.423z"/>
<rect x="282.64" y="428.836" fill="#FFFFFF" width="30" height="1.006"/>
</svg>
