<?xml version="1.0" encoding="utf-8"?>
<!-- Generator: Adobe Illustrator 16.0.0, SVG Export Plug-In . SVG Version: 6.00 Build 0)  -->
<!DOCTYPE svg PUBLIC "-//W3C//DTD SVG 1.1//EN" "http://www.w3.org/Graphics/SVG/1.1/DTD/svg11.dtd">
<svg version="1.1" id="Layer_1" xmlns="http://www.w3.org/2000/svg" xmlns:xlink="http://www.w3.org/1999/xlink" x="0px" y="0px"
	 width="30px" height="21px" viewBox="241 245.5 30 21" enable-background="new 241 245.5 30 21" xml:space="preserve">
<path id="user-14-icon" d="M269.959,263.005h-5.419c0-5.896-2.946-3.093-2.946-8.26c0-1.865,1.22-2.877,2.789-2.877
	c2.315,0,3.929,2.212,1.734,6.347c-0.721,1.358,0.768,1.682,2.366,2.052C270.082,260.635,269.959,261.477,269.959,263.005z
	 M243.517,260.267c1.599-0.37,3.087-0.693,2.366-2.052c-2.193-4.135-0.581-6.347,1.735-6.347c1.567,0,2.789,1.012,2.789,2.877
	c0,5.167-2.947,2.364-2.947,8.26h-5.417C242.042,261.477,241.919,260.635,243.517,260.267z M261.158,259.56
	c-2.012-0.465-3.882-0.87-2.976-2.579c2.759-5.202,0.73-7.984-2.183-7.984c-2.971,0-4.949,2.889-2.182,7.984
	c0.933,1.719-1.009,2.124-2.976,2.579c-2.01,0.463-1.855,1.522-1.855,3.445h14.026C263.013,261.082,263.168,260.022,261.158,259.56z
	"/>
</svg>
